<?xml version="1.0" encoding="utf-8" standalone="no"?>
<!DOCTYPE svg PUBLIC "-//W3C//DTD SVG 1.1//EN"
  "http://www.w3.org/Graphics/SVG/1.1/DTD/svg11.dtd">
<svg xmlns:xlink="http://www.w3.org/1999/xlink" width="1296pt" height="720pt" viewBox="0 0 1296 720" xmlns="http://www.w3.org/2000/svg" version="1.1">
 <metadata>
  <rdf:RDF xmlns:dc="http://purl.org/dc/elements/1.1/" xmlns:cc="http://creativecommons.org/ns#" xmlns:rdf="http://www.w3.org/1999/02/22-rdf-syntax-ns#">
   <cc:Work>
    <dc:type rdf:resource="http://purl.org/dc/dcmitype/StillImage"/>
    <dc:date>2025-02-17T16:07:28.619146</dc:date>
    <dc:format>image/svg+xml</dc:format>
    <dc:creator>
     <cc:Agent>
      <dc:title>Matplotlib v3.8.3, https://matplotlib.org/</dc:title>
     </cc:Agent>
    </dc:creator>
   </cc:Work>
  </rdf:RDF>
 </metadata>
 <defs>
  <style type="text/css">*{stroke-linejoin: round; stroke-linecap: butt}</style>
 </defs>
 <g id="figure_1">
  <g id="patch_1">
   <path d="M 0 720 
L 1296 720 
L 1296 0 
L 0 0 
z
" style="fill: #ffffff"/>
  </g>
  <g id="axes_1">
   <g id="patch_2">
    <path d="M 451.946223 266.79031 
C 446.066432 246.089826 436.931268 226.455721 424.883619 208.624957 
C 412.835969 190.794194 398.028479 174.99269 381.016944 161.813552 
C 364.00541 148.634414 345.005369 138.244623 324.729985 131.034159 
C 304.454601 123.823694 283.160765 119.883913 261.647739 119.362695 
C 240.134712 118.841477 218.675066 121.745426 198.074286 127.965541 
C 177.473506 134.185657 157.992605 143.643131 140.362796 155.982978 
C 122.732987 168.322824 107.177641 183.388697 94.280625 200.615101 
C 81.38361 217.841504 71.308332 237.010179 64.432964 257.401631 
C 57.557597 277.793083 53.969253 299.14895 53.802618 320.667645 
C 53.635984 342.18634 56.893172 363.595217 63.451923 384.090699 
C 70.010675 404.58618 79.78789 423.908586 92.416583 441.332653 
C 105.045275 458.75672 120.365439 474.061683 137.802033 486.673073 
C 155.238628 499.284464 174.57073 509.042493 195.072712 515.580896 
C 215.574694 522.119299 236.986794 525.355233 258.505313 525.167238 
C 280.023832 524.979243 301.376127 521.369701 321.760744 514.474095 
C 342.145361 507.578489 361.304024 497.484188 378.517617 484.570079 
C 379.662359 463.377559 386.906191 442.960403 399.373985 425.785204 
C 411.84178 408.610006 429.010392 395.397431 448.805684 387.74369 
C 449.372504 386.081655 449.917728 384.412332 450.441217 382.736144 
C 450.964706 381.059955 451.466417 379.377043 451.946223 377.687832 
C 438.525919 362.338856 431.123912 342.627686 431.123912 322.239071 
C 431.123912 301.850456 438.525919 282.139286 451.946223 266.79031 
" clip-path="url(#pf21a1dee23)" style="fill: #66c2a5; opacity: 0.5"/>
   </g>
   <g id="patch_3">
    <path d="M 451.946223 377.687832 
C 452.989267 378.880775 454.065764 380.04405 455.17443 381.176268 
C 456.283095 382.308485 457.423486 383.409195 458.594243 384.477083 
C 473.969774 380.134728 490.107399 379.188127 505.885167 381.703092 
C 521.662936 384.218056 536.706529 390.13492 549.97006 399.042321 
C 561.443639 393.872501 571.614258 386.196741 579.732322 376.580759 
C 587.850386 366.964777 593.711433 355.650763 596.883491 343.472581 
C 600.055549 331.294399 600.458727 318.558771 598.06331 306.204336 
C 595.667893 293.849902 590.534212 282.187822 583.04063 272.077615 
C 575.547048 261.967408 565.882298 253.663709 554.758692 247.77852 
C 543.635086 241.89333 531.332784 238.574873 518.758491 238.067726 
C 506.184197 237.560579 493.654608 239.877515 482.09318 244.847771 
C 470.531752 249.818028 460.229671 257.316423 451.946223 266.79031 
C 457.06956 284.827611 459.668356 303.488264 459.668356 322.239071 
C 459.668356 340.989879 457.06956 359.650532 451.946223 377.687832 
" clip-path="url(#pf21a1dee23)" style="fill: #fc8d62; opacity: 0.5"/>
   </g>
   <g id="patch_4">
    <path d="M 451.946223 377.687832 
C 457.06956 359.650532 459.668356 340.989879 459.668356 322.239071 
C 459.668356 303.488264 457.06956 284.827611 451.946223 266.79031 
C 438.525919 282.139286 431.123912 301.850456 431.123912 322.239071 
C 431.123912 342.627686 438.525919 362.338856 451.946223 377.687832 
" clip-path="url(#pf21a1dee23)" style="fill: #f8eab8; opacity: 0.5"/>
   </g>
   <g id="patch_5">
    <path d="M 378.517617 484.570079 
C 377.477952 503.817305 381.50686 523.00458 390.200375 540.208052 
C 398.89389 557.411523 411.951407 572.036327 428.063685 582.616078 
C 444.175963 593.195828 462.785871 599.364697 482.027448 600.50415 
C 501.269025 601.643603 520.476933 597.71424 537.725251 589.110047 
C 554.973569 580.505853 569.665884 567.524346 580.329039 551.467143 
C 590.992193 535.409941 597.257477 516.832269 598.496687 497.59686 
C 599.735898 478.36145 595.906185 459.133425 587.391545 441.840724 
C 578.876904 424.548023 565.971755 409.788593 549.97006 399.042321 
C 534.98133 405.796014 518.3384 408.01649 502.103334 405.428632 
C 485.868267 402.840774 470.740457 395.556066 458.594243 384.477083 
C 456.93843 384.944717 455.293798 385.451072 453.661701 385.99573 
C 452.029603 386.540389 450.410486 387.123202 448.805684 387.74369 
C 442.259658 406.938007 432.873257 425.043111 420.959766 441.454721 
C 409.046274 457.866332 394.739725 472.399809 378.517617 484.570079 
" clip-path="url(#pf21a1dee23)" style="fill: #8da0cb; opacity: 0.5"/>
   </g>
   <g id="patch_6">
    <path d="M 378.517617 484.570079 
C 394.739725 472.399809 409.046274 457.866332 420.959766 441.454721 
C 432.873257 425.043111 442.259658 406.938007 448.805684 387.74369 
C 429.010392 395.397431 411.84178 408.610006 399.373985 425.785204 
C 386.906191 442.960403 379.662359 463.377559 378.517617 484.570079 
" clip-path="url(#pf21a1dee23)" style="fill: #aaf8ff; opacity: 0.5"/>
   </g>
   <g id="patch_7">
    <path d="M 458.594243 384.477083 
C 470.740457 395.556066 485.868267 402.840774 502.103334 405.428632 
C 518.3384 408.01649 534.98133 405.796014 549.97006 399.042321 
C 536.706529 390.13492 521.662936 384.218056 505.885167 381.703092 
C 490.107399 379.188127 473.969774 380.134728 458.594243 384.477083 
" clip-path="url(#pf21a1dee23)" style="fill: #ffd3d3; opacity: 0.5"/>
   </g>
   <g id="text_1">
    <!-- 6954 -->
    <g transform="translate(172.420823 298.128729) scale(0.1 -0.1)">
     <defs>
      <path id="DejaVuSans-36" d="M 2113 2584 
Q 1688 2584 1439 2293 
Q 1191 2003 1191 1497 
Q 1191 994 1439 701 
Q 1688 409 2113 409 
Q 2538 409 2786 701 
Q 3034 994 3034 1497 
Q 3034 2003 2786 2293 
Q 2538 2584 2113 2584 
z
M 3366 4563 
L 3366 3988 
Q 3128 4100 2886 4159 
Q 2644 4219 2406 4219 
Q 1781 4219 1451 3797 
Q 1122 3375 1075 2522 
Q 1259 2794 1537 2939 
Q 1816 3084 2150 3084 
Q 2853 3084 3261 2657 
Q 3669 2231 3669 1497 
Q 3669 778 3244 343 
Q 2819 -91 2113 -91 
Q 1303 -91 875 529 
Q 447 1150 447 2328 
Q 447 3434 972 4092 
Q 1497 4750 2381 4750 
Q 2619 4750 2861 4703 
Q 3103 4656 3366 4563 
z
" transform="scale(0.015625)"/>
      <path id="DejaVuSans-39" d="M 703 97 
L 703 672 
Q 941 559 1184 500 
Q 1428 441 1663 441 
Q 2288 441 2617 861 
Q 2947 1281 2994 2138 
Q 2813 1869 2534 1725 
Q 2256 1581 1919 1581 
Q 1219 1581 811 2004 
Q 403 2428 403 3163 
Q 403 3881 828 4315 
Q 1253 4750 1959 4750 
Q 2769 4750 3195 4129 
Q 3622 3509 3622 2328 
Q 3622 1225 3098 567 
Q 2575 -91 1691 -91 
Q 1453 -91 1209 -44 
Q 966 3 703 97 
z
M 1959 2075 
Q 2384 2075 2632 2365 
Q 2881 2656 2881 3163 
Q 2881 3666 2632 3958 
Q 2384 4250 1959 4250 
Q 1534 4250 1286 3958 
Q 1038 3666 1038 3163 
Q 1038 2656 1286 2365 
Q 1534 2075 1959 2075 
z
" transform="scale(0.015625)"/>
      <path id="DejaVuSans-35" d="M 691 4666 
L 3169 4666 
L 3169 4134 
L 1269 4134 
L 1269 2991 
Q 1406 3038 1543 3061 
Q 1681 3084 1819 3084 
Q 2600 3084 3056 2656 
Q 3513 2228 3513 1497 
Q 3513 744 3044 326 
Q 2575 -91 1722 -91 
Q 1428 -91 1123 -41 
Q 819 9 494 109 
L 494 744 
Q 775 591 1075 516 
Q 1375 441 1709 441 
Q 2250 441 2565 725 
Q 2881 1009 2881 1497 
Q 2881 1984 2565 2268 
Q 2250 2553 1709 2553 
Q 1456 2553 1204 2497 
Q 953 2441 691 2322 
L 691 4666 
z
" transform="scale(0.015625)"/>
      <path id="DejaVuSans-34" d="M 2419 4116 
L 825 1625 
L 2419 1625 
L 2419 4116 
z
M 2253 4666 
L 3047 4666 
L 3047 1625 
L 3713 1625 
L 3713 1100 
L 3047 1100 
L 3047 0 
L 2419 0 
L 2419 1100 
L 313 1100 
L 313 1709 
L 2253 4666 
z
" transform="scale(0.015625)"/>
     </defs>
     <use xlink:href="#DejaVuSans-36"/>
     <use xlink:href="#DejaVuSans-39" x="63.623047"/>
     <use xlink:href="#DejaVuSans-35" x="127.246094"/>
     <use xlink:href="#DejaVuSans-34" x="190.869141"/>
    </g>
   </g>
   <g id="text_2">
    <!-- 1077 -->
    <g transform="translate(541.006095 301.305248) scale(0.1 -0.1)">
     <defs>
      <path id="DejaVuSans-31" d="M 794 531 
L 1825 531 
L 1825 4091 
L 703 3866 
L 703 4441 
L 1819 4666 
L 2450 4666 
L 2450 531 
L 3481 531 
L 3481 0 
L 794 0 
L 794 531 
z
" transform="scale(0.015625)"/>
      <path id="DejaVuSans-30" d="M 2034 4250 
Q 1547 4250 1301 3770 
Q 1056 3291 1056 2328 
Q 1056 1369 1301 889 
Q 1547 409 2034 409 
Q 2525 409 2770 889 
Q 3016 1369 3016 2328 
Q 3016 3291 2770 3770 
Q 2525 4250 2034 4250 
z
M 2034 4750 
Q 2819 4750 3233 4129 
Q 3647 3509 3647 2328 
Q 3647 1150 3233 529 
Q 2819 -91 2034 -91 
Q 1250 -91 836 529 
Q 422 1150 422 2328 
Q 422 3509 836 4129 
Q 1250 4750 2034 4750 
z
" transform="scale(0.015625)"/>
      <path id="DejaVuSans-37" d="M 525 4666 
L 3525 4666 
L 3525 4397 
L 1831 0 
L 1172 0 
L 2766 4134 
L 525 4134 
L 525 4666 
z
" transform="scale(0.015625)"/>
     </defs>
     <use xlink:href="#DejaVuSans-31"/>
     <use xlink:href="#DejaVuSans-30" x="63.623047"/>
     <use xlink:href="#DejaVuSans-37" x="127.246094"/>
     <use xlink:href="#DejaVuSans-37" x="190.869141"/>
    </g>
   </g>
   <g id="text_3">
    <!-- 71 -->
    <g transform="translate(439.033634 324.998446) scale(0.1 -0.1)">
     <use xlink:href="#DejaVuSans-37"/>
     <use xlink:href="#DejaVuSans-31" x="63.623047"/>
    </g>
   </g>
   <g id="text_4">
    <!-- 1952 -->
    <g transform="translate(505.235673 538.637387) scale(0.1 -0.1)">
     <defs>
      <path id="DejaVuSans-32" d="M 1228 531 
L 3431 531 
L 3431 0 
L 469 0 
L 469 531 
Q 828 903 1448 1529 
Q 2069 2156 2228 2338 
Q 2531 2678 2651 2914 
Q 2772 3150 2772 3378 
Q 2772 3750 2511 3984 
Q 2250 4219 1831 4219 
Q 1534 4219 1204 4116 
Q 875 4013 500 3803 
L 500 4441 
Q 881 4594 1212 4672 
Q 1544 4750 1819 4750 
Q 2544 4750 2975 4387 
Q 3406 4025 3406 3419 
Q 3406 3131 3298 2873 
Q 3191 2616 2906 2266 
Q 2828 2175 2409 1742 
Q 1991 1309 1228 531 
z
" transform="scale(0.015625)"/>
     </defs>
     <use xlink:href="#DejaVuSans-31"/>
     <use xlink:href="#DejaVuSans-39" x="63.623047"/>
     <use xlink:href="#DejaVuSans-35" x="127.246094"/>
     <use xlink:href="#DejaVuSans-32" x="190.869141"/>
    </g>
   </g>
   <g id="text_5">
    <!-- 71 -->
    <g transform="translate(403.804375 436.379338) scale(0.1 -0.1)">
     <use xlink:href="#DejaVuSans-37"/>
     <use xlink:href="#DejaVuSans-31" x="63.623047"/>
    </g>
   </g>
   <g id="text_6">
    <!-- 35 -->
    <g transform="translate(497.631751 396.325237) scale(0.1 -0.1)">
     <defs>
      <path id="DejaVuSans-33" d="M 2597 2516 
Q 3050 2419 3304 2112 
Q 3559 1806 3559 1356 
Q 3559 666 3084 287 
Q 2609 -91 1734 -91 
Q 1441 -91 1130 -33 
Q 819 25 488 141 
L 488 750 
Q 750 597 1062 519 
Q 1375 441 1716 441 
Q 2309 441 2620 675 
Q 2931 909 2931 1356 
Q 2931 1769 2642 2001 
Q 2353 2234 1838 2234 
L 1294 2234 
L 1294 2753 
L 1863 2753 
Q 2328 2753 2575 2939 
Q 2822 3125 2822 3475 
Q 2822 3834 2567 4026 
Q 2313 4219 1838 4219 
Q 1578 4219 1281 4162 
Q 984 4106 628 3988 
L 628 4550 
Q 988 4650 1302 4700 
Q 1616 4750 1894 4750 
Q 2613 4750 3031 4423 
Q 3450 4097 3450 3541 
Q 3450 3153 3228 2886 
Q 3006 2619 2597 2516 
z
" transform="scale(0.015625)"/>
     </defs>
     <use xlink:href="#DejaVuSans-33"/>
     <use xlink:href="#DejaVuSans-35" x="63.623047"/>
    </g>
   </g>
   <g id="text_7">
    <!-- 48 -->
    <g transform="translate(446.767108 386.043276) scale(0.1 -0.1)">
     <defs>
      <path id="DejaVuSans-38" d="M 2034 2216 
Q 1584 2216 1326 1975 
Q 1069 1734 1069 1313 
Q 1069 891 1326 650 
Q 1584 409 2034 409 
Q 2484 409 2743 651 
Q 3003 894 3003 1313 
Q 3003 1734 2745 1975 
Q 2488 2216 2034 2216 
z
M 1403 2484 
Q 997 2584 770 2862 
Q 544 3141 544 3541 
Q 544 4100 942 4425 
Q 1341 4750 2034 4750 
Q 2731 4750 3128 4425 
Q 3525 4100 3525 3541 
Q 3525 3141 3298 2862 
Q 3072 2584 2669 2484 
Q 3125 2378 3379 2068 
Q 3634 1759 3634 1313 
Q 3634 634 3220 271 
Q 2806 -91 2034 -91 
Q 1263 -91 848 271 
Q 434 634 434 1313 
Q 434 1759 690 2068 
Q 947 2378 1403 2484 
z
M 1172 3481 
Q 1172 3119 1398 2916 
Q 1625 2713 2034 2713 
Q 2441 2713 2670 2916 
Q 2900 3119 2900 3481 
Q 2900 3844 2670 4047 
Q 2441 4250 2034 4250 
Q 1625 4250 1398 4047 
Q 1172 3844 1172 3481 
z
" transform="scale(0.015625)"/>
     </defs>
     <use xlink:href="#DejaVuSans-34"/>
     <use xlink:href="#DejaVuSans-38" x="63.623047"/>
    </g>
   </g>
   <g id="text_8">
    <!-- Animalia -->
    <g transform="translate(103.05324 119.30316) scale(0.12 -0.12)">
     <defs>
      <path id="DejaVuSans-41" d="M 2188 4044 
L 1331 1722 
L 3047 1722 
L 2188 4044 
z
M 1831 4666 
L 2547 4666 
L 4325 0 
L 3669 0 
L 3244 1197 
L 1141 1197 
L 716 0 
L 50 0 
L 1831 4666 
z
" transform="scale(0.015625)"/>
      <path id="DejaVuSans-6e" d="M 3513 2113 
L 3513 0 
L 2938 0 
L 2938 2094 
Q 2938 2591 2744 2837 
Q 2550 3084 2163 3084 
Q 1697 3084 1428 2787 
Q 1159 2491 1159 1978 
L 1159 0 
L 581 0 
L 581 3500 
L 1159 3500 
L 1159 2956 
Q 1366 3272 1645 3428 
Q 1925 3584 2291 3584 
Q 2894 3584 3203 3211 
Q 3513 2838 3513 2113 
z
" transform="scale(0.015625)"/>
      <path id="DejaVuSans-69" d="M 603 3500 
L 1178 3500 
L 1178 0 
L 603 0 
L 603 3500 
z
M 603 4863 
L 1178 4863 
L 1178 4134 
L 603 4134 
L 603 4863 
z
" transform="scale(0.015625)"/>
      <path id="DejaVuSans-6d" d="M 3328 2828 
Q 3544 3216 3844 3400 
Q 4144 3584 4550 3584 
Q 5097 3584 5394 3201 
Q 5691 2819 5691 2113 
L 5691 0 
L 5113 0 
L 5113 2094 
Q 5113 2597 4934 2840 
Q 4756 3084 4391 3084 
Q 3944 3084 3684 2787 
Q 3425 2491 3425 1978 
L 3425 0 
L 2847 0 
L 2847 2094 
Q 2847 2600 2669 2842 
Q 2491 3084 2119 3084 
Q 1678 3084 1418 2786 
Q 1159 2488 1159 1978 
L 1159 0 
L 581 0 
L 581 3500 
L 1159 3500 
L 1159 2956 
Q 1356 3278 1631 3431 
Q 1906 3584 2284 3584 
Q 2666 3584 2933 3390 
Q 3200 3197 3328 2828 
z
" transform="scale(0.015625)"/>
      <path id="DejaVuSans-61" d="M 2194 1759 
Q 1497 1759 1228 1600 
Q 959 1441 959 1056 
Q 959 750 1161 570 
Q 1363 391 1709 391 
Q 2188 391 2477 730 
Q 2766 1069 2766 1631 
L 2766 1759 
L 2194 1759 
z
M 3341 1997 
L 3341 0 
L 2766 0 
L 2766 531 
Q 2569 213 2275 61 
Q 1981 -91 1556 -91 
Q 1019 -91 701 211 
Q 384 513 384 1019 
Q 384 1609 779 1909 
Q 1175 2209 1959 2209 
L 2766 2209 
L 2766 2266 
Q 2766 2663 2505 2880 
Q 2244 3097 1772 3097 
Q 1472 3097 1187 3025 
Q 903 2953 641 2809 
L 641 3341 
Q 956 3463 1253 3523 
Q 1550 3584 1831 3584 
Q 2591 3584 2966 3190 
Q 3341 2797 3341 1997 
z
" transform="scale(0.015625)"/>
      <path id="DejaVuSans-6c" d="M 603 4863 
L 1178 4863 
L 1178 0 
L 603 0 
L 603 4863 
z
" transform="scale(0.015625)"/>
     </defs>
     <use xlink:href="#DejaVuSans-41"/>
     <use xlink:href="#DejaVuSans-6e" x="68.408203"/>
     <use xlink:href="#DejaVuSans-69" x="131.787109"/>
     <use xlink:href="#DejaVuSans-6d" x="159.570312"/>
     <use xlink:href="#DejaVuSans-61" x="256.982422"/>
     <use xlink:href="#DejaVuSans-6c" x="318.261719"/>
     <use xlink:href="#DejaVuSans-69" x="346.044922"/>
     <use xlink:href="#DejaVuSans-61" x="373.828125"/>
    </g>
   </g>
   <g id="text_9">
    <!-- Bacteria -->
    <g transform="translate(557.483577 237.999294) scale(0.12 -0.12)">
     <defs>
      <path id="DejaVuSans-42" d="M 1259 2228 
L 1259 519 
L 2272 519 
Q 2781 519 3026 730 
Q 3272 941 3272 1375 
Q 3272 1813 3026 2020 
Q 2781 2228 2272 2228 
L 1259 2228 
z
M 1259 4147 
L 1259 2741 
L 2194 2741 
Q 2656 2741 2882 2914 
Q 3109 3088 3109 3444 
Q 3109 3797 2882 3972 
Q 2656 4147 2194 4147 
L 1259 4147 
z
M 628 4666 
L 2241 4666 
Q 2963 4666 3353 4366 
Q 3744 4066 3744 3513 
Q 3744 3084 3544 2831 
Q 3344 2578 2956 2516 
Q 3422 2416 3680 2098 
Q 3938 1781 3938 1306 
Q 3938 681 3513 340 
Q 3088 0 2303 0 
L 628 0 
L 628 4666 
z
" transform="scale(0.015625)"/>
      <path id="DejaVuSans-63" d="M 3122 3366 
L 3122 2828 
Q 2878 2963 2633 3030 
Q 2388 3097 2138 3097 
Q 1578 3097 1268 2742 
Q 959 2388 959 1747 
Q 959 1106 1268 751 
Q 1578 397 2138 397 
Q 2388 397 2633 464 
Q 2878 531 3122 666 
L 3122 134 
Q 2881 22 2623 -34 
Q 2366 -91 2075 -91 
Q 1284 -91 818 406 
Q 353 903 353 1747 
Q 353 2603 823 3093 
Q 1294 3584 2113 3584 
Q 2378 3584 2631 3529 
Q 2884 3475 3122 3366 
z
" transform="scale(0.015625)"/>
      <path id="DejaVuSans-74" d="M 1172 4494 
L 1172 3500 
L 2356 3500 
L 2356 3053 
L 1172 3053 
L 1172 1153 
Q 1172 725 1289 603 
Q 1406 481 1766 481 
L 2356 481 
L 2356 0 
L 1766 0 
Q 1100 0 847 248 
Q 594 497 594 1153 
L 594 3053 
L 172 3053 
L 172 3500 
L 594 3500 
L 594 4494 
L 1172 4494 
z
" transform="scale(0.015625)"/>
      <path id="DejaVuSans-65" d="M 3597 1894 
L 3597 1613 
L 953 1613 
Q 991 1019 1311 708 
Q 1631 397 2203 397 
Q 2534 397 2845 478 
Q 3156 559 3463 722 
L 3463 178 
Q 3153 47 2828 -22 
Q 2503 -91 2169 -91 
Q 1331 -91 842 396 
Q 353 884 353 1716 
Q 353 2575 817 3079 
Q 1281 3584 2069 3584 
Q 2775 3584 3186 3129 
Q 3597 2675 3597 1894 
z
M 3022 2063 
Q 3016 2534 2758 2815 
Q 2500 3097 2075 3097 
Q 1594 3097 1305 2825 
Q 1016 2553 972 2059 
L 3022 2063 
z
" transform="scale(0.015625)"/>
      <path id="DejaVuSans-72" d="M 2631 2963 
Q 2534 3019 2420 3045 
Q 2306 3072 2169 3072 
Q 1681 3072 1420 2755 
Q 1159 2438 1159 1844 
L 1159 0 
L 581 0 
L 581 3500 
L 1159 3500 
L 1159 2956 
Q 1341 3275 1631 3429 
Q 1922 3584 2338 3584 
Q 2397 3584 2469 3576 
Q 2541 3569 2628 3553 
L 2631 2963 
z
" transform="scale(0.015625)"/>
     </defs>
     <use xlink:href="#DejaVuSans-42"/>
     <use xlink:href="#DejaVuSans-61" x="68.603516"/>
     <use xlink:href="#DejaVuSans-63" x="129.882812"/>
     <use xlink:href="#DejaVuSans-74" x="184.863281"/>
     <use xlink:href="#DejaVuSans-65" x="224.072266"/>
     <use xlink:href="#DejaVuSans-72" x="285.595703"/>
     <use xlink:href="#DejaVuSans-69" x="326.708984"/>
     <use xlink:href="#DejaVuSans-61" x="354.492188"/>
    </g>
   </g>
   <g id="text_10">
    <!-- Fungi -->
    <g transform="translate(472.339051 620.833335) scale(0.12 -0.12)">
     <defs>
      <path id="DejaVuSans-46" d="M 628 4666 
L 3309 4666 
L 3309 4134 
L 1259 4134 
L 1259 2759 
L 3109 2759 
L 3109 2228 
L 1259 2228 
L 1259 0 
L 628 0 
L 628 4666 
z
" transform="scale(0.015625)"/>
      <path id="DejaVuSans-75" d="M 544 1381 
L 544 3500 
L 1119 3500 
L 1119 1403 
Q 1119 906 1312 657 
Q 1506 409 1894 409 
Q 2359 409 2629 706 
Q 2900 1003 2900 1516 
L 2900 3500 
L 3475 3500 
L 3475 0 
L 2900 0 
L 2900 538 
Q 2691 219 2414 64 
Q 2138 -91 1772 -91 
Q 1169 -91 856 284 
Q 544 659 544 1381 
z
M 1991 3584 
L 1991 3584 
z
" transform="scale(0.015625)"/>
      <path id="DejaVuSans-67" d="M 2906 1791 
Q 2906 2416 2648 2759 
Q 2391 3103 1925 3103 
Q 1463 3103 1205 2759 
Q 947 2416 947 1791 
Q 947 1169 1205 825 
Q 1463 481 1925 481 
Q 2391 481 2648 825 
Q 2906 1169 2906 1791 
z
M 3481 434 
Q 3481 -459 3084 -895 
Q 2688 -1331 1869 -1331 
Q 1566 -1331 1297 -1286 
Q 1028 -1241 775 -1147 
L 775 -588 
Q 1028 -725 1275 -790 
Q 1522 -856 1778 -856 
Q 2344 -856 2625 -561 
Q 2906 -266 2906 331 
L 2906 616 
Q 2728 306 2450 153 
Q 2172 0 1784 0 
Q 1141 0 747 490 
Q 353 981 353 1791 
Q 353 2603 747 3093 
Q 1141 3584 1784 3584 
Q 2172 3584 2450 3431 
Q 2728 3278 2906 2969 
L 2906 3500 
L 3481 3500 
L 3481 434 
z
" transform="scale(0.015625)"/>
     </defs>
     <use xlink:href="#DejaVuSans-46"/>
     <use xlink:href="#DejaVuSans-75" x="52.019531"/>
     <use xlink:href="#DejaVuSans-6e" x="115.398438"/>
     <use xlink:href="#DejaVuSans-67" x="178.777344"/>
     <use xlink:href="#DejaVuSans-69" x="242.253906"/>
    </g>
   </g>
   <g id="text_11">
    <!-- Overlap of Murcko Scaffolds -->
    <g transform="translate(242.79 70.306626) scale(0.12 -0.12)">
     <defs>
      <path id="DejaVuSans-4f" d="M 2522 4238 
Q 1834 4238 1429 3725 
Q 1025 3213 1025 2328 
Q 1025 1447 1429 934 
Q 1834 422 2522 422 
Q 3209 422 3611 934 
Q 4013 1447 4013 2328 
Q 4013 3213 3611 3725 
Q 3209 4238 2522 4238 
z
M 2522 4750 
Q 3503 4750 4090 4092 
Q 4678 3434 4678 2328 
Q 4678 1225 4090 567 
Q 3503 -91 2522 -91 
Q 1538 -91 948 565 
Q 359 1222 359 2328 
Q 359 3434 948 4092 
Q 1538 4750 2522 4750 
z
" transform="scale(0.015625)"/>
      <path id="DejaVuSans-76" d="M 191 3500 
L 800 3500 
L 1894 563 
L 2988 3500 
L 3597 3500 
L 2284 0 
L 1503 0 
L 191 3500 
z
" transform="scale(0.015625)"/>
      <path id="DejaVuSans-70" d="M 1159 525 
L 1159 -1331 
L 581 -1331 
L 581 3500 
L 1159 3500 
L 1159 2969 
Q 1341 3281 1617 3432 
Q 1894 3584 2278 3584 
Q 2916 3584 3314 3078 
Q 3713 2572 3713 1747 
Q 3713 922 3314 415 
Q 2916 -91 2278 -91 
Q 1894 -91 1617 61 
Q 1341 213 1159 525 
z
M 3116 1747 
Q 3116 2381 2855 2742 
Q 2594 3103 2138 3103 
Q 1681 3103 1420 2742 
Q 1159 2381 1159 1747 
Q 1159 1113 1420 752 
Q 1681 391 2138 391 
Q 2594 391 2855 752 
Q 3116 1113 3116 1747 
z
" transform="scale(0.015625)"/>
      <path id="DejaVuSans-20" transform="scale(0.015625)"/>
      <path id="DejaVuSans-6f" d="M 1959 3097 
Q 1497 3097 1228 2736 
Q 959 2375 959 1747 
Q 959 1119 1226 758 
Q 1494 397 1959 397 
Q 2419 397 2687 759 
Q 2956 1122 2956 1747 
Q 2956 2369 2687 2733 
Q 2419 3097 1959 3097 
z
M 1959 3584 
Q 2709 3584 3137 3096 
Q 3566 2609 3566 1747 
Q 3566 888 3137 398 
Q 2709 -91 1959 -91 
Q 1206 -91 779 398 
Q 353 888 353 1747 
Q 353 2609 779 3096 
Q 1206 3584 1959 3584 
z
" transform="scale(0.015625)"/>
      <path id="DejaVuSans-66" d="M 2375 4863 
L 2375 4384 
L 1825 4384 
Q 1516 4384 1395 4259 
Q 1275 4134 1275 3809 
L 1275 3500 
L 2222 3500 
L 2222 3053 
L 1275 3053 
L 1275 0 
L 697 0 
L 697 3053 
L 147 3053 
L 147 3500 
L 697 3500 
L 697 3744 
Q 697 4328 969 4595 
Q 1241 4863 1831 4863 
L 2375 4863 
z
" transform="scale(0.015625)"/>
      <path id="DejaVuSans-4d" d="M 628 4666 
L 1569 4666 
L 2759 1491 
L 3956 4666 
L 4897 4666 
L 4897 0 
L 4281 0 
L 4281 4097 
L 3078 897 
L 2444 897 
L 1241 4097 
L 1241 0 
L 628 0 
L 628 4666 
z
" transform="scale(0.015625)"/>
      <path id="DejaVuSans-6b" d="M 581 4863 
L 1159 4863 
L 1159 1991 
L 2875 3500 
L 3609 3500 
L 1753 1863 
L 3688 0 
L 2938 0 
L 1159 1709 
L 1159 0 
L 581 0 
L 581 4863 
z
" transform="scale(0.015625)"/>
      <path id="DejaVuSans-53" d="M 3425 4513 
L 3425 3897 
Q 3066 4069 2747 4153 
Q 2428 4238 2131 4238 
Q 1616 4238 1336 4038 
Q 1056 3838 1056 3469 
Q 1056 3159 1242 3001 
Q 1428 2844 1947 2747 
L 2328 2669 
Q 3034 2534 3370 2195 
Q 3706 1856 3706 1288 
Q 3706 609 3251 259 
Q 2797 -91 1919 -91 
Q 1588 -91 1214 -16 
Q 841 59 441 206 
L 441 856 
Q 825 641 1194 531 
Q 1563 422 1919 422 
Q 2459 422 2753 634 
Q 3047 847 3047 1241 
Q 3047 1584 2836 1778 
Q 2625 1972 2144 2069 
L 1759 2144 
Q 1053 2284 737 2584 
Q 422 2884 422 3419 
Q 422 4038 858 4394 
Q 1294 4750 2059 4750 
Q 2388 4750 2728 4690 
Q 3069 4631 3425 4513 
z
" transform="scale(0.015625)"/>
      <path id="DejaVuSans-64" d="M 2906 2969 
L 2906 4863 
L 3481 4863 
L 3481 0 
L 2906 0 
L 2906 525 
Q 2725 213 2448 61 
Q 2172 -91 1784 -91 
Q 1150 -91 751 415 
Q 353 922 353 1747 
Q 353 2572 751 3078 
Q 1150 3584 1784 3584 
Q 2172 3584 2448 3432 
Q 2725 3281 2906 2969 
z
M 947 1747 
Q 947 1113 1208 752 
Q 1469 391 1925 391 
Q 2381 391 2643 752 
Q 2906 1113 2906 1747 
Q 2906 2381 2643 2742 
Q 2381 3103 1925 3103 
Q 1469 3103 1208 2742 
Q 947 2381 947 1747 
z
" transform="scale(0.015625)"/>
      <path id="DejaVuSans-73" d="M 2834 3397 
L 2834 2853 
Q 2591 2978 2328 3040 
Q 2066 3103 1784 3103 
Q 1356 3103 1142 2972 
Q 928 2841 928 2578 
Q 928 2378 1081 2264 
Q 1234 2150 1697 2047 
L 1894 2003 
Q 2506 1872 2764 1633 
Q 3022 1394 3022 966 
Q 3022 478 2636 193 
Q 2250 -91 1575 -91 
Q 1294 -91 989 -36 
Q 684 19 347 128 
L 347 722 
Q 666 556 975 473 
Q 1284 391 1588 391 
Q 1994 391 2212 530 
Q 2431 669 2431 922 
Q 2431 1156 2273 1281 
Q 2116 1406 1581 1522 
L 1381 1569 
Q 847 1681 609 1914 
Q 372 2147 372 2553 
Q 372 3047 722 3315 
Q 1072 3584 1716 3584 
Q 2034 3584 2315 3537 
Q 2597 3491 2834 3397 
z
" transform="scale(0.015625)"/>
     </defs>
     <use xlink:href="#DejaVuSans-4f"/>
     <use xlink:href="#DejaVuSans-76" x="78.710938"/>
     <use xlink:href="#DejaVuSans-65" x="137.890625"/>
     <use xlink:href="#DejaVuSans-72" x="199.414062"/>
     <use xlink:href="#DejaVuSans-6c" x="240.527344"/>
     <use xlink:href="#DejaVuSans-61" x="268.310547"/>
     <use xlink:href="#DejaVuSans-70" x="329.589844"/>
     <use xlink:href="#DejaVuSans-20" x="393.066406"/>
     <use xlink:href="#DejaVuSans-6f" x="424.853516"/>
     <use xlink:href="#DejaVuSans-66" x="486.035156"/>
     <use xlink:href="#DejaVuSans-20" x="521.240234"/>
     <use xlink:href="#DejaVuSans-4d" x="553.027344"/>
     <use xlink:href="#DejaVuSans-75" x="639.306641"/>
     <use xlink:href="#DejaVuSans-72" x="702.685547"/>
     <use xlink:href="#DejaVuSans-63" x="741.548828"/>
     <use xlink:href="#DejaVuSans-6b" x="796.529297"/>
     <use xlink:href="#DejaVuSans-6f" x="850.814453"/>
     <use xlink:href="#DejaVuSans-20" x="911.996094"/>
     <use xlink:href="#DejaVuSans-53" x="943.783203"/>
     <use xlink:href="#DejaVuSans-63" x="1007.259766"/>
     <use xlink:href="#DejaVuSans-61" x="1062.240234"/>
     <use xlink:href="#DejaVuSans-66" x="1123.519531"/>
     <use xlink:href="#DejaVuSans-66" x="1158.724609"/>
     <use xlink:href="#DejaVuSans-6f" x="1193.929688"/>
     <use xlink:href="#DejaVuSans-6c" x="1255.111328"/>
     <use xlink:href="#DejaVuSans-64" x="1282.894531"/>
     <use xlink:href="#DejaVuSans-73" x="1346.371094"/>
    </g>
   </g>
  </g>
  <g id="axes_2">
   <g id="patch_8">
    <path d="M 1100.200503 247.165942 
C 1080.347243 209.993742 1049.970402 179.485559 1012.884203 159.472107 
C 975.798005 139.458655 933.622481 130.814179 891.65334 134.624112 
C 849.6842 138.434044 809.754774 154.531956 776.878744 180.896535 
C 744.002715 207.261114 719.6162 242.740681 706.781258 282.880295 
C 693.946316 323.019909 693.223613 366.066158 704.703895 406.613999 
C 716.184177 447.161841 739.365952 483.440032 771.338433 510.893352 
C 803.310915 538.346671 842.677454 555.775882 884.495048 560.992508 
C 926.312642 566.209135 968.754579 558.9853 1006.491698 540.228056 
C 997.759523 528.168089 991.535486 514.477592 988.189011 499.969154 
C 984.842536 485.460716 984.441168 470.427177 987.00873 455.760846 
C 989.576293 441.094514 995.060962 427.091415 1003.137198 414.582695 
C 1011.213434 402.073974 1021.718225 391.31211 1034.028067 382.935866 
C 1024.82776 356.166002 1026.627756 326.80815 1039.029499 301.362756 
C 1051.431242 275.917363 1073.446454 256.412135 1100.200503 247.165942 
" clip-path="url(#p86ca8076d0)" style="fill: #66c2a5; opacity: 0.5"/>
   </g>
   <g id="patch_9">
    <path d="M 1100.200503 247.165942 
C 1109.974223 265.465739 1117.040862 285.087374 1121.179243 305.416712 
C 1125.317625 325.746049 1126.484118 346.568759 1124.642213 367.233114 
C 1141.45999 371.60466 1157.022631 379.85455 1170.079866 391.320004 
C 1183.137102 402.785459 1193.329645 417.150992 1199.83865 433.262507 
C 1220.063195 417.875028 1234.152113 395.768331 1239.55927 370.937516 
C 1244.966427 346.106701 1241.345217 320.143448 1229.350063 297.73981 
C 1217.354909 275.336171 1197.754712 257.928244 1174.091599 248.661971 
C 1150.428486 239.395697 1124.219288 238.865055 1100.200503 247.165942 
" clip-path="url(#p86ca8076d0)" style="fill: #fc8d62; opacity: 0.5"/>
   </g>
   <g id="patch_10">
    <path d="M 1100.200503 247.165942 
C 1073.446454 256.412135 1051.431242 275.917363 1039.029499 301.362756 
C 1026.627756 326.80815 1024.82776 356.166002 1034.028067 382.935866 
C 1047.1406 374.013429 1062.010097 367.996 1077.637463 365.287894 
C 1093.264829 362.579789 1109.29204 363.24305 1124.642213 367.233114 
C 1126.484118 346.568759 1125.317625 325.746049 1121.179243 305.416712 
C 1117.040862 285.087374 1109.974223 265.465739 1100.200503 247.165942 
" clip-path="url(#p86ca8076d0)" style="fill: #f8eab8; opacity: 0.5"/>
   </g>
   <g id="patch_11">
    <path d="M 1006.491698 540.228056 
C 1022.430463 562.241011 1045.892831 577.671459 1072.418853 583.586235 
C 1098.944876 589.50101 1126.740077 585.49998 1150.520882 572.343699 
C 1174.301687 559.187417 1192.459333 537.765902 1201.542244 512.151157 
C 1210.625155 486.536412 1210.018874 458.461266 1199.83865 433.262507 
C 1185.829702 443.920961 1169.40245 450.955748 1152.021348 453.739734 
C 1134.640247 456.523719 1116.837609 454.971639 1100.200503 449.221859 
C 1089.757608 468.774587 1076.345927 486.590458 1060.444061 502.033706 
C 1044.542195 517.476954 1026.341576 530.361669 1006.491698 540.228056 
" clip-path="url(#p86ca8076d0)" style="fill: #8da0cb; opacity: 0.5"/>
   </g>
   <g id="patch_12">
    <path d="M 1006.491698 540.228056 
C 1026.341576 530.361669 1044.542195 517.476954 1060.444061 502.033706 
C 1076.345927 486.590458 1089.757608 468.774587 1100.200503 449.221859 
C 1084.863105 443.921258 1070.932244 435.196964 1059.467501 423.712547 
C 1048.002758 412.228129 1039.302363 398.28233 1034.028067 382.935866 
C 1021.718225 391.31211 1011.213434 402.073974 1003.137198 414.582695 
C 995.060962 427.091415 989.576293 441.094514 987.00873 455.760846 
C 984.441168 470.427177 984.842536 485.460716 988.189011 499.969154 
C 991.535486 514.477592 997.759523 528.168089 1006.491698 540.228056 
" clip-path="url(#p86ca8076d0)" style="fill: #aaf8ff; opacity: 0.5"/>
   </g>
   <g id="patch_13">
    <path d="M 1124.642213 367.233114 
C 1123.366639 381.543788 1120.656126 395.690118 1116.551554 409.458741 
C 1112.446982 423.227365 1106.969092 436.54871 1100.200503 449.221859 
C 1116.837609 454.971639 1134.640247 456.523719 1152.021348 453.739734 
C 1169.40245 450.955748 1185.829702 443.920961 1199.83865 433.262507 
C 1193.329645 417.150992 1183.137102 402.785459 1170.079866 391.320004 
C 1157.022631 379.85455 1141.45999 371.60466 1124.642213 367.233114 
" clip-path="url(#p86ca8076d0)" style="fill: #ffd3d3; opacity: 0.5"/>
   </g>
   <g id="patch_14">
    <path d="M 1034.028067 382.935866 
C 1039.302363 398.28233 1048.002758 412.228129 1059.467501 423.712547 
C 1070.932244 435.196964 1084.863105 443.921258 1100.200503 449.221859 
C 1106.969092 436.54871 1112.446982 423.227365 1116.551554 409.458741 
C 1120.656126 395.690118 1123.366639 381.543788 1124.642213 367.233114 
C 1109.29204 363.24305 1093.264829 362.579789 1077.637463 365.287894 
C 1062.010097 367.996 1047.1406 374.013429 1034.028067 382.935866 
" clip-path="url(#p86ca8076d0)" style="fill: #c6c6ba; opacity: 0.5"/>
   </g>
   <g id="text_12">
    <!-- 3273 -->
    <g transform="translate(817.548796 324.559927) scale(0.1 -0.1)">
     <use xlink:href="#DejaVuSans-33"/>
     <use xlink:href="#DejaVuSans-32" x="63.623047"/>
     <use xlink:href="#DejaVuSans-37" x="127.246094"/>
     <use xlink:href="#DejaVuSans-33" x="190.869141"/>
    </g>
   </g>
   <g id="text_13">
    <!-- 490 -->
    <g transform="translate(1192.603176 321.651668) scale(0.1 -0.1)">
     <use xlink:href="#DejaVuSans-34"/>
     <use xlink:href="#DejaVuSans-39" x="63.623047"/>
     <use xlink:href="#DejaVuSans-30" x="127.246094"/>
    </g>
   </g>
   <g id="text_14">
    <!-- 194 -->
    <g transform="translate(1056.311973 323.05346) scale(0.1 -0.1)">
     <use xlink:href="#DejaVuSans-31"/>
     <use xlink:href="#DejaVuSans-39" x="63.623047"/>
     <use xlink:href="#DejaVuSans-34" x="127.246094"/>
    </g>
   </g>
   <g id="text_15">
    <!-- 543 -->
    <g transform="translate(1128.917635 539.527409) scale(0.1 -0.1)">
     <use xlink:href="#DejaVuSans-35"/>
     <use xlink:href="#DejaVuSans-34" x="63.623047"/>
     <use xlink:href="#DejaVuSans-33" x="127.246094"/>
    </g>
   </g>
   <g id="text_16">
    <!-- 222 -->
    <g transform="translate(1013.029776 458.383664) scale(0.1 -0.1)">
     <use xlink:href="#DejaVuSans-32"/>
     <use xlink:href="#DejaVuSans-32" x="63.623047"/>
     <use xlink:href="#DejaVuSans-32" x="127.246094"/>
    </g>
   </g>
   <g id="text_17">
    <!-- 95 -->
    <g transform="translate(1146.778241 423.705288) scale(0.1 -0.1)">
     <use xlink:href="#DejaVuSans-39"/>
     <use xlink:href="#DejaVuSans-35" x="63.623047"/>
    </g>
   </g>
   <g id="text_18">
    <!-- 183 -->
    <g transform="translate(1067.699958 400.787147) scale(0.1 -0.1)">
     <use xlink:href="#DejaVuSans-31"/>
     <use xlink:href="#DejaVuSans-38" x="63.623047"/>
     <use xlink:href="#DejaVuSans-33" x="127.246094"/>
    </g>
   </g>
   <g id="text_19">
    <!-- Animalia -->
    <g transform="translate(751.605829 133.745914) scale(0.12 -0.12)">
     <use xlink:href="#DejaVuSans-41"/>
     <use xlink:href="#DejaVuSans-6e" x="68.408203"/>
     <use xlink:href="#DejaVuSans-69" x="131.787109"/>
     <use xlink:href="#DejaVuSans-6d" x="159.570312"/>
     <use xlink:href="#DejaVuSans-61" x="256.982422"/>
     <use xlink:href="#DejaVuSans-6c" x="318.261719"/>
     <use xlink:href="#DejaVuSans-69" x="346.044922"/>
     <use xlink:href="#DejaVuSans-61" x="373.828125"/>
    </g>
   </g>
   <g id="text_20">
    <!-- Bacteria -->
    <g transform="translate(1188.561328 241.30273) scale(0.12 -0.12)">
     <use xlink:href="#DejaVuSans-42"/>
     <use xlink:href="#DejaVuSans-61" x="68.603516"/>
     <use xlink:href="#DejaVuSans-63" x="129.882812"/>
     <use xlink:href="#DejaVuSans-74" x="184.863281"/>
     <use xlink:href="#DejaVuSans-65" x="224.072266"/>
     <use xlink:href="#DejaVuSans-72" x="285.595703"/>
     <use xlink:href="#DejaVuSans-69" x="326.708984"/>
     <use xlink:href="#DejaVuSans-61" x="354.492188"/>
    </g>
   </g>
   <g id="text_21">
    <!-- Fungi -->
    <g transform="translate(1080.43986 606.502244) scale(0.12 -0.12)">
     <use xlink:href="#DejaVuSans-46"/>
     <use xlink:href="#DejaVuSans-75" x="52.019531"/>
     <use xlink:href="#DejaVuSans-6e" x="115.398438"/>
     <use xlink:href="#DejaVuSans-67" x="178.777344"/>
     <use xlink:href="#DejaVuSans-69" x="242.253906"/>
    </g>
   </g>
   <g id="text_22">
    <!-- Overlap of Morgan Fingerprint Clusters -->
    <g transform="translate(852.834375 84.552828) scale(0.12 -0.12)">
     <defs>
      <path id="DejaVuSans-43" d="M 4122 4306 
L 4122 3641 
Q 3803 3938 3442 4084 
Q 3081 4231 2675 4231 
Q 1875 4231 1450 3742 
Q 1025 3253 1025 2328 
Q 1025 1406 1450 917 
Q 1875 428 2675 428 
Q 3081 428 3442 575 
Q 3803 722 4122 1019 
L 4122 359 
Q 3791 134 3420 21 
Q 3050 -91 2638 -91 
Q 1578 -91 968 557 
Q 359 1206 359 2328 
Q 359 3453 968 4101 
Q 1578 4750 2638 4750 
Q 3056 4750 3426 4639 
Q 3797 4528 4122 4306 
z
" transform="scale(0.015625)"/>
     </defs>
     <use xlink:href="#DejaVuSans-4f"/>
     <use xlink:href="#DejaVuSans-76" x="78.710938"/>
     <use xlink:href="#DejaVuSans-65" x="137.890625"/>
     <use xlink:href="#DejaVuSans-72" x="199.414062"/>
     <use xlink:href="#DejaVuSans-6c" x="240.527344"/>
     <use xlink:href="#DejaVuSans-61" x="268.310547"/>
     <use xlink:href="#DejaVuSans-70" x="329.589844"/>
     <use xlink:href="#DejaVuSans-20" x="393.066406"/>
     <use xlink:href="#DejaVuSans-6f" x="424.853516"/>
     <use xlink:href="#DejaVuSans-66" x="486.035156"/>
     <use xlink:href="#DejaVuSans-20" x="521.240234"/>
     <use xlink:href="#DejaVuSans-4d" x="553.027344"/>
     <use xlink:href="#DejaVuSans-6f" x="639.306641"/>
     <use xlink:href="#DejaVuSans-72" x="700.488281"/>
     <use xlink:href="#DejaVuSans-67" x="739.851562"/>
     <use xlink:href="#DejaVuSans-61" x="803.328125"/>
     <use xlink:href="#DejaVuSans-6e" x="864.607422"/>
     <use xlink:href="#DejaVuSans-20" x="927.986328"/>
     <use xlink:href="#DejaVuSans-46" x="959.773438"/>
     <use xlink:href="#DejaVuSans-69" x="1010.042969"/>
     <use xlink:href="#DejaVuSans-6e" x="1037.826172"/>
     <use xlink:href="#DejaVuSans-67" x="1101.205078"/>
     <use xlink:href="#DejaVuSans-65" x="1164.681641"/>
     <use xlink:href="#DejaVuSans-72" x="1226.205078"/>
     <use xlink:href="#DejaVuSans-70" x="1267.318359"/>
     <use xlink:href="#DejaVuSans-72" x="1330.794922"/>
     <use xlink:href="#DejaVuSans-69" x="1371.908203"/>
     <use xlink:href="#DejaVuSans-6e" x="1399.691406"/>
     <use xlink:href="#DejaVuSans-74" x="1463.070312"/>
     <use xlink:href="#DejaVuSans-20" x="1502.279297"/>
     <use xlink:href="#DejaVuSans-43" x="1534.066406"/>
     <use xlink:href="#DejaVuSans-6c" x="1603.890625"/>
     <use xlink:href="#DejaVuSans-75" x="1631.673828"/>
     <use xlink:href="#DejaVuSans-73" x="1695.052734"/>
     <use xlink:href="#DejaVuSans-74" x="1747.152344"/>
     <use xlink:href="#DejaVuSans-65" x="1786.361328"/>
     <use xlink:href="#DejaVuSans-72" x="1847.884766"/>
     <use xlink:href="#DejaVuSans-73" x="1888.998047"/>
    </g>
   </g>
  </g>
 </g>
 <defs>
  <clipPath id="pf21a1dee23">
   <rect x="10.8" y="76.306626" width="631.8" height="567.386748"/>
  </clipPath>
  <clipPath id="p86ca8076d0">
   <rect x="653.4" y="90.552828" width="631.8" height="538.894344"/>
  </clipPath>
 </defs>
</svg>
